<?xml version="1.0" encoding="UTF-8" standalone="no"?>
<!DOCTYPE svg PUBLIC "-//W3C//DTD SVG 1.1//EN" "http://www.w3.org/Graphics/SVG/1.1/DTD/svg11.dtd">
<svg width="360.00" height="360.00" viewBox="0.00 0.00 3000.00 3000.00" xmlns="http://www.w3.org/2000/svg" xmlns:xlink="http://www.w3.org/1999/xlink">
<g stroke-linecap="round" id="Layer_2">
<path d="M2844.42,83.82 C2844.27,83.30 2838.96,84.57 2835.96,85.27 C2826.94,87.40 2818.06,90.74 2811.19,93.67 C2792.63,101.81 2747.80,121.79 2721.53,133.64 C2682.32,151.63 2613.20,183.49 2583.28,197.36 C2559.75,208.33 2510.36,231.40 2484.49,243.49 C2456.27,256.71 2397.58,284.25 2367.10,298.56 C2335.93,313.48 2273.44,343.75 2242.14,359.10 C2210.70,374.87 2147.70,406.84 2116.14,423.03 C2086.23,438.74 2026.51,470.43 1996.69,486.41 C1966.69,502.80 1906.54,535.97 1876.38,552.75 C1846.06,569.93 1786.56,603.79 1757.38,620.47 C1730.15,636.09 1677.64,666.29 1652.36,680.86 C1629.02,694.38 1577.86,724.16 1550.03,740.43 C1516.47,760.34 1455.74,796.71 1428.58,813.17 C1405.57,827.40 1359.31,856.07 1336.04,870.51 C1311.86,885.61 1260.99,917.53 1234.31,934.35 C1206.53,951.85 1151.27,986.80 1123.78,1004.25 C1098.16,1020.80 1045.05,1055.65 1017.55,1073.97 C990.40,1092.63 937.94,1129.23 912.63,1147.18 C900.55,1155.97 876.23,1173.84 863.99,1182.93 C850.53,1193.26 823.96,1213.89 810.86,1224.19 C798.13,1234.44 773.51,1254.51 761.60,1264.34 C750.67,1273.62 726.85,1294.12 717.08,1303.15 C704.46,1315.08 681.60,1337.87 671.26,1348.78 C661.44,1359.58 638.56,1385.33 633.17,1392.09 C624.21,1403.55 606.95,1426.82 598.52,1438.89 C589.70,1452.33 568.86,1486.80 563.36,1496.86 C556.54,1509.70 542.41,1536.81 535.10,1551.09 C527.47,1566.59 512.79,1597.36 506.31,1612.26 C500.39,1626.77 489.74,1655.75 485.10,1671.78 C482.85,1680.14 479.01,1696.50 477.41,1704.50 C475.18,1717.16 465.54,1795.88 461.49,1826.34 C459.11,1841.98 454.19,1873.48 451.64,1889.34 C449.46,1905.19 444.86,1941.65 443.89,1952.31 C441.58,1982.77 438.62,2045.40 437.27,2077.27 C435.63,2110.94 432.20,2178.48 430.40,2212.34 C429.88,2225.56 428.71,2260.88 429.60,2274.76 C430.06,2281.66 431.47,2291.32 431.48,2291.45 C431.63,2292.94 432.68,2293.63 434.42,2293.21 C434.89,2293.09 435.69,2292.73 436.84,2292.11 C442.86,2286.23 464.35,2265.26 467.87,2261.40 C472.73,2256.04 486.40,2238.74 493.37,2229.30 C503.47,2214.74 521.35,2188.46 529.11,2176.73 C546.67,2148.86 582.82,2090.57 601.40,2060.16 C609.84,2046.47 626.13,2020.16 633.97,2007.54 C642.01,1994.96 658.04,1970.27 666.03,1958.15 C673.48,1947.11 687.86,1926.11 694.79,1916.15 C701.88,1906.31 720.26,1882.18 730.36,1869.16 C755.60,1838.13 796.02,1789.13 811.22,1771.16 C828.38,1751.13 864.68,1709.00 883.82,1686.91 C904.93,1662.75 948.64,1612.96 971.25,1587.33 C994.65,1561.06 1042.26,1507.90 1066.47,1481.00 C1091.48,1453.47 1138.94,1401.62 1161.40,1377.31 C1182.99,1354.23 1226.81,1307.57 1249.03,1283.99 C1271.88,1259.91 1318.20,1211.26 1341.67,1186.68 C1365.65,1161.75 1413.04,1112.76 1436.45,1088.70 C1459.03,1065.81 1503.38,1021.21 1525.14,999.49 C1546.07,978.94 1587.93,938.25 1608.85,918.10 C1634.33,894.22 1683.85,848.49 1707.88,826.66 C1730.48,806.86 1774.31,769.27 1795.53,751.46 C1806.45,742.72 1828.92,725.00 1840.47,716.03 C1852.67,706.84 1877.70,688.25 1890.54,678.84 C1904.02,669.22 1931.62,649.74 1945.74,639.90 C1960.50,629.83 1989.35,610.39 2003.45,601.01 C2030.55,583.51 2086.67,547.78 2115.69,529.56 C2146.62,510.61 2210.40,472.00 2243.26,452.33 C2276.92,432.52 2340.43,395.16 2370.28,377.61 C2395.79,362.61 2442.48,335.13 2463.65,322.66 C2480.50,312.74 2498.25,302.27 2499.16,301.74 C2507.47,299.65 2521.94,296.14 2524.84,296.48 C2526.44,296.70 2528.25,298.22 2528.32,299.22 C2528.35,300.61 2514.66,320.36 2504.26,333.65 C2491.46,349.23 2469.01,374.09 2454.75,388.86 C2439.26,404.22 2416.40,425.79 2406.46,434.98 C2395.73,444.58 2373.49,464.17 2361.98,474.16 C2336.80,495.23 2285.11,537.83 2258.61,559.35 C2232.02,580.42 2180.63,620.74 2155.82,640.00 C2130.16,659.58 2078.37,698.92 2052.24,718.68 C2026.85,738.17 1976.63,777.06 1951.80,796.45 C1926.08,816.97 1875.28,857.95 1850.20,878.42 C1825.76,898.79 1777.52,939.26 1753.72,959.37 C1730.16,979.60 1682.61,1020.90 1658.61,1041.97 C1634.94,1063.14 1587.64,1105.64 1564.02,1126.96 C1540.23,1148.49 1493.06,1191.47 1469.68,1212.94 C1445.86,1235.02 1397.67,1279.83 1373.30,1302.56 C1361.62,1313.73 1338.81,1335.80 1327.67,1346.70 C1317.08,1357.33 1296.44,1378.34 1286.39,1388.71 C1276.88,1398.95 1258.33,1419.25 1249.30,1429.31 C1240.75,1439.18 1224.13,1458.73 1216.07,1468.41 C1199.91,1488.74 1161.11,1537.33 1138.47,1565.60 C1111.62,1598.86 1067.49,1653.56 1050.21,1675.00 C1031.03,1698.72 990.77,1748.45 969.69,1774.45 C946.71,1802.74 899.26,1861.14 874.78,1891.25 C851.98,1919.55 808.74,1973.55 788.30,1999.26 C770.21,2022.38 736.38,2066.04 720.64,2086.58 C713.51,2096.04 685.41,2135.09 672.77,2153.57 C659.72,2173.54 645.15,2198.19 639.78,2209.22 C629.83,2230.20 608.93,2274.72 596.51,2303.21 C589.37,2319.73 575.52,2352.16 571.00,2364.71 C568.48,2372.27 566.42,2380.05 566.38,2380.18 C565.89,2381.84 566.09,2383.66 567.05,2385.55 C568.64,2388.48 572.94,2390.54 579.18,2392.61 C581.60,2393.40 584.73,2394.50 585.18,2394.60 C594.02,2396.56 632.19,2400.92 635.29,2401.04 C643.71,2401.35 664.63,2399.93 672.81,2398.73 C697.99,2394.75 764.34,2382.72 800.85,2375.85 C835.14,2368.97 906.92,2354.15 934.06,2347.65 C957.39,2341.54 975.57,2335.79 991.36,2329.63 C1004.22,2324.38 1025.28,2315.68 1042.18,2308.18 C1055.49,2302.17 1083.58,2289.33 1098.36,2282.51 C1113.44,2275.15 1143.41,2259.47 1158.30,2251.13 C1165.46,2247.01 1197.78,2226.49 1210.92,2217.72 C1224.15,2208.48 1250.46,2189.69 1263.53,2180.15 C1276.25,2170.51 1301.42,2151.14 1313.88,2141.08 C1326.22,2130.76 1350.66,2109.91 1362.76,2099.37 C1374.62,2088.63 1398.06,2066.96 1409.64,2056.03 C1420.95,2044.91 1443.63,2021.75 1454.99,2009.72 C1466.25,1997.26 1488.62,1972.01 1499.72,1959.22 C1509.91,1947.14 1529.21,1923.96 1538.31,1912.86 C1543.99,1905.79 1564.44,1878.27 1572.12,1867.41 C1579.16,1857.06 1594.50,1832.59 1603.58,1817.14 C1621.84,1784.67 1648.12,1735.35 1662.12,1708.79 C1669.98,1693.62 1685.85,1662.74 1693.86,1647.03 C1701.58,1631.51 1716.72,1600.65 1724.15,1585.31 C1731.29,1570.15 1745.74,1538.92 1753.05,1522.84 C1760.23,1506.54 1774.30,1474.07 1781.19,1457.90 C1794.01,1426.46 1817.59,1368.39 1828.35,1341.77 C1832.90,1330.56 1845.23,1300.41 1853.02,1281.47 C1858.69,1268.11 1869.67,1242.92 1875.57,1230.25 C1882.03,1217.06 1894.99,1191.34 1901.48,1178.82 C1908.98,1164.83 1924.69,1136.10 1932.89,1121.35 C1941.40,1106.75 1956.58,1081.04 1966.88,1064.78 C1984.38,1037.97 2020.97,984.63 2039.06,958.59 C2055.44,935.92 2087.56,892.11 2104.59,869.92 C2126.84,842.21 2171.33,788.97 2188.16,769.16 C2207.86,746.29 2250.03,697.62 2272.49,671.83 C2295.64,646.00 2341.86,595.34 2364.93,570.52 C2376.59,558.33 2401.04,533.09 2413.81,520.04 C2426.63,507.23 2452.28,481.85 2465.13,469.28 C2490.90,444.87 2539.87,398.91 2563.08,377.36 C2581.84,360.01 2623.82,321.49 2647.04,300.34 C2653.99,294.20 2666.78,282.64 2680.31,269.34 C2703.31,246.02 2749.88,198.34 2773.45,173.97 C2800.99,145.27 2849.26,95.04 2869.98,73.51 C2873.88,69.48 2884.54,58.47 2884.56,58.46 C2884.95,58.24 2885.90,57.91 2887.40,57.46" fill="none" stroke="rgb(33, 77, 123)" stroke-width="50.00" stroke-opacity="1.00" stroke-linejoin="round"/>
<path d="M665.85,2164.06 C652.86,2189.75 623.96,2246.83 608.05,2278.22 C603.76,2286.61 596.38,2300.29 591.78,2308.73 C587.01,2317.08 583.68,2322.41 579.27,2328.85 C568.19,2344.21 533.07,2390.04 517.28,2410.62 C498.18,2435.44 456.68,2489.32 434.28,2518.38 C408.78,2551.42 359.18,2615.71 335.07,2646.98 C314.19,2674.11 275.67,2724.26 258.02,2747.27 C250.40,2757.23 235.98,2776.11 229.18,2785.04 C220.64,2796.25 202.73,2822.90 194.12,2836.99 C193.49,2838.06 190.24,2843.53 190.31,2845.91 C190.38,2847.67 194.93,2853.13 196.63,2855.11 C201.37,2860.64 213.51,2874.81 216.78,2880.42 C218.88,2884.11 221.90,2891.63 222.82,2895.51 C223.80,2899.79 224.34,2908.14 223.92,2912.49 C223.34,2918.06 215.89,2943.22 215.58,2944.25 C221.29,2937.87 239.35,2917.66 245.30,2910.74 C257.56,2895.81 281.50,2865.01 290.99,2852.57 C307.85,2829.91 344.79,2779.75 364.89,2752.24 C385.45,2724.54 425.88,2670.93 445.76,2645.02 C456.10,2631.91 476.57,2606.25 486.68,2593.69 C506.25,2570.24 545.70,2523.01 565.58,2499.24 C586.68,2473.24 629.06,2420.31 650.35,2393.37 C672.89,2364.23 715.74,2308.60 736.06,2282.11 C743.93,2271.90 758.13,2253.51 764.47,2245.33 C768.90,2239.67 774.16,2235.04 775.91,2233.53" fill="none" stroke="rgb(33, 77, 123)" stroke-width="50.00" stroke-opacity="1.00" stroke-linejoin="round"/>
<path d="M123.55,2686.31 C125.70,2685.57 133.64,2682.88 134.47,2682.57 C142.42,2679.53 151.64,2672.65 155.21,2670.01 C163.90,2663.25 183.42,2647.66 194.25,2638.83 C207.44,2627.27 240.15,2596.48 257.87,2579.44 C276.88,2560.32 317.83,2518.51 339.76,2495.83 C364.25,2470.03 412.36,2419.40 435.98,2394.57 C457.91,2371.66 505.92,2321.62 532.00,2294.50 C556.59,2269.17 603.27,2221.09 623.02,2200.15 C631.71,2190.60 647.92,2172.40 655.44,2163.76 C662.45,2155.32 674.85,2139.61 680.25,2132.35 C690.13,2118.38 703.36,2095.36 710.20,2083.52 C722.42,2062.90 753.47,2011.68 760.39,2001.27 C769.68,1988.00 795.13,1954.28 809.33,1935.88 C828.14,1912.67 864.72,1868.05 882.48,1846.64 C902.90,1822.33 946.41,1770.80 969.49,1743.59 C994.77,1713.99 1043.85,1656.53 1067.66,1628.66 C1089.24,1603.39 1130.15,1555.44 1149.48,1532.77 C1167.79,1511.28 1216.07,1454.60 1246.04,1419.42 C1265.75,1396.16 1301.17,1354.73 1316.90,1336.55 C1333.64,1318.07 1368.66,1280.30 1386.95,1261.02 C1406.53,1241.12 1449.59,1197.06 1473.06,1172.90 C1499.82,1144.60 1547.29,1094.08 1568.02,1071.86 C1591.19,1046.73 1639.93,993.64 1665.48,965.70 C1689.33,939.65 1733.04,892.11 1752.89,870.61 C1761.32,861.58 1780.75,840.82 1789.01,832.36 C1796.31,825.14 1810.27,811.61 1816.51,805.91 C1821.95,801.08 1831.53,792.56 1835.69,788.87 C1837.28,787.45 1839.55,785.43 1840.22,784.82" fill="none" stroke="rgb(255, 255, 255)" stroke-width="50.00" stroke-opacity="1.00" stroke-linejoin="round"/>
<path d="M1168.51,1454.48 C1161.27,1461.66 1143.45,1479.30 1132.88,1489.76 C1119.93,1502.59 1094.25,1529.59 1081.89,1543.49 C1069.86,1557.66 1052.01,1579.96 1043.71,1590.89 C1027.68,1612.70 992.99,1664.39 973.97,1692.53 C953.85,1721.66 915.32,1777.13 896.91,1803.47 C876.03,1833.13 834.59,1891.87 814.04,1920.94 C797.00,1944.99 759.57,1997.71 739.18,2026.38 C723.05,2048.72 702.51,2077.27 695.95,2087.80 C692.87,2092.21 644.95,2152.15 634.96,2164.70 C629.12,2172.10 626.36,2177.37 622.24,2182.75 C612.78,2194.96 592.24,2221.56 581.17,2235.94 C567.08,2255.05 559.55,2267.58 557.81,2269.94 C552.56,2276.99 526.99,2303.96 516.94,2314.40 C491.06,2340.56 439.63,2392.05 414.09,2417.36 C404.21,2426.75 391.63,2438.66 388.94,2441.20 C396.48,2435.35 418.34,2418.35 429.67,2408.59 C446.64,2393.30 467.89,2372.89 477.72,2363.27 C488.75,2352.21 511.83,2328.78 523.88,2316.43 C535.63,2304.13 558.53,2279.88 569.69,2267.92 C590.62,2244.86 629.07,2200.58 647.11,2178.74 C656.75,2166.45 676.82,2140.17 687.27,2126.19 C697.16,2112.45 715.17,2087.11 723.30,2075.50 C740.76,2049.84 777.04,1995.83 795.85,1967.48 C814.13,1940.38 851.37,1885.93 870.34,1858.58 C881.73,1842.56 904.15,1811.44 915.18,1796.32 C925.77,1782.19 945.38,1756.10 954.40,1744.15 C961.49,1734.76 973.17,1719.28 977.78,1713.18" fill="none" stroke="rgb(255, 255, 255)" stroke-width="50.00" stroke-opacity="1.00" stroke-linejoin="round"/>
<path d="M616.46,2316.58 C616.46,2316.58 617.44,2316.90 617.44,2316.90" fill="none" stroke="rgb(33, 77, 123)" stroke-width="50.00" stroke-opacity="1.00" stroke-linejoin="round"/>
<path d="M592.94,2333.65 C598.17,2322.96 611.28,2296.27 619.82,2279.81 C628.84,2263.38 646.24,2234.29 655.58,2219.68 C663.57,2207.49 684.24,2176.41 687.04,2173.02 C691.24,2168.01 742.82,2117.43 754.52,2106.09 C765.53,2095.59 777.77,2085.68 778.41,2085.16" fill="none" stroke="rgb(33, 77, 123)" stroke-width="50.00" stroke-opacity="1.00" stroke-linejoin="round"/>
<path d="M487.00,2163.73 C485.36,2163.18 482.62,2161.54 481.41,2160.19 C481.04,2159.76 478.15,2151.89 477.48,2149.14 C475.61,2141.23 476.95,2128.78 477.51,2123.45 C481.04,2096.28 491.69,2027.18 497.21,1992.31 C502.58,1960.88 513.63,1898.68 519.31,1867.91 C522.36,1852.80 528.86,1821.67 532.31,1805.65 C535.85,1790.29 543.10,1760.03 547.03,1745.42 C551.17,1731.11 559.94,1703.77 567.84,1682.43 C573.17,1668.91 587.41,1636.14 592.87,1623.70 C593.37,1622.56 595.45,1617.72 595.65,1617.42 C595.85,1617.09 596.36,1616.45 597.17,1615.50" fill="none" stroke="rgb(33, 77, 123)" stroke-width="78.00" stroke-opacity="1.00" stroke-linejoin="round"/>
<path d="M508.02,1943.09 C509.13,1934.56 509.72,1929.16 510.37,1915.41 C511.21,1883.01 512.51,1825.13 512.72,1822.59 C513.43,1814.33 519.20,1781.79 521.84,1767.23 C525.27,1749.19 532.35,1714.05 536.00,1696.94 C539.75,1680.95 548.95,1647.01 553.75,1631.31 C558.68,1616.42 568.84,1588.24 574.05,1574.87 C577.67,1565.90 593.63,1531.72 600.65,1518.09 C608.04,1504.31 620.04,1482.17 630.78,1464.08 C639.04,1450.58 656.00,1423.52 664.97,1410.30 C669.59,1403.85 676.75,1393.92 683.79,1385.25 C693.86,1373.32 715.43,1349.64 726.51,1338.24 C737.40,1327.49 754.51,1311.50 767.49,1300.72 C776.97,1293.18 796.16,1278.93 807.57,1270.92 C839.34,1249.23 891.89,1213.67 912.65,1199.81 C937.35,1183.36 990.67,1147.85 1019.30,1128.80 C1051.23,1107.58 1113.48,1066.29 1143.79,1046.23 C1171.45,1028.03 1224.11,993.48 1249.11,977.14 C1284.31,954.46 1351.83,911.44 1384.14,891.10 C1407.91,876.65 1450.04,851.24 1468.42,840.28 C1485.15,830.45 1522.26,811.52 1524.07,810.60 C1522.81,813.11 1519.42,819.57 1516.27,822.73 C1516.05,822.94 1466.22,862.06 1447.06,877.07 C1424.16,894.92 1374.65,933.47 1348.04,954.16 C1317.69,977.70 1256.28,1025.43 1225.20,1049.62 C1196.03,1072.54 1139.59,1117.10 1112.33,1138.74 C1086.98,1159.11 1037.32,1199.26 1013.02,1219.04 C995.63,1233.42 962.07,1261.35 945.91,1274.90 C930.97,1287.63 902.33,1312.27 888.63,1324.18 C876.15,1335.27 852.43,1356.62 841.18,1366.88 C820.97,1385.99 782.48,1423.11 764.19,1441.13 C755.77,1449.73 739.41,1466.68 731.47,1475.01 C719.97,1487.40 691.79,1519.20 679.23,1534.24 C667.69,1548.71 648.09,1575.31 639.02,1588.01 C631.71,1598.36 618.83,1616.70 613.26,1624.67 C609.65,1629.99 608.08,1636.48 607.72,1637.85" fill="none" stroke="rgb(33, 77, 123)" stroke-width="78.00" stroke-opacity="1.00" stroke-linejoin="round"/>
<path d="M1013.35,1146.32 C1008.74,1149.39 996.34,1157.63 989.61,1162.98 C984.64,1166.94 929.44,1219.56 905.44,1242.64 C879.49,1268.07 829.08,1318.09 804.64,1342.68 C792.82,1354.89 769.61,1379.10 758.20,1391.09 C747.21,1402.85 725.68,1426.20 715.14,1437.78 C705.17,1449.24 685.78,1472.03 676.36,1483.37 C667.36,1494.62 646.99,1521.42 636.87,1535.46 C627.19,1549.44 609.11,1577.18 600.71,1590.88 C592.91,1604.14 577.92,1630.22 571.12,1642.74 C564.73,1654.96 549.23,1687.97 542.57,1703.73 C538.17,1714.79 526.65,1746.86 522.00,1760.14 C518.34,1771.17 509.01,1804.95 505.05,1822.87 C503.90,1828.77 501.65,1840.31 501.34,1850.74 C501.26,1853.86 501.15,1858.00 501.12,1859.01" fill="none" stroke="rgb(33, 77, 123)" stroke-width="78.00" stroke-opacity="1.00" stroke-linejoin="round"/>
<path d="M534.03,2046.90 C535.01,2026.10 537.02,2008.07 540.83,1990.20 C542.48,1983.00 546.53,1967.60 549.02,1959.35 C553.13,1946.71 564.46,1917.31 570.37,1903.26 C576.79,1888.65 590.97,1858.25 597.77,1844.56 C604.77,1831.04 619.41,1803.41 627.05,1789.29 C634.80,1775.49 650.30,1748.32 658.53,1734.64 C667.07,1720.98 684.32,1694.01 693.02,1680.69 C701.45,1668.21 718.02,1643.95 725.98,1632.84 C733.83,1622.20 749.40,1601.37 758.06,1590.36 C781.15,1562.44 823.11,1514.17 842.36,1492.33 C865.56,1466.43 911.37,1415.70 933.97,1390.87 C958.38,1364.66 1008.62,1311.66 1034.45,1284.86 C1052.06,1266.87 1071.77,1246.74 1073.87,1244.60" fill="none" stroke="rgb(33, 77, 123)" stroke-width="78.00" stroke-opacity="1.00" stroke-linejoin="round"/>
<path d="M598.58,1795.74 C592.82,1800.28 578.12,1811.71 574.04,1812.29 C572.58,1812.44 570.25,1811.51 569.52,1810.39 C568.36,1808.47 567.60,1799.17 567.97,1795.57 C568.17,1793.77 572.17,1778.87 574.25,1772.04 C577.04,1763.30 582.05,1750.27 586.48,1739.97 C591.03,1729.94 607.86,1698.99 616.12,1684.94 C624.72,1670.97 641.69,1643.91 649.81,1631.62 C657.53,1620.60 672.92,1599.14 680.61,1589.01 C689.84,1577.43 714.85,1547.98 728.44,1532.25 C746.51,1512.07 786.76,1467.60 808.94,1443.29 C832.53,1417.80 878.43,1368.57 900.73,1344.82 C927.66,1316.78 979.31,1263.57 1004.02,1238.40 C1020.80,1221.40 1039.69,1202.26 1041.80,1200.12" fill="none" stroke="rgb(33, 77, 123)" stroke-width="78.00" stroke-opacity="1.00" stroke-linejoin="round"/>
<path d="M1001.60,1393.23 C1004.22,1392.27 1011.85,1389.49 1014.81,1387.60 C1018.21,1385.41 1027.87,1375.72 1031.72,1371.83 C1052.66,1349.74 1098.83,1301.01 1124.21,1275.05 C1136.80,1262.58 1161.56,1238.48 1173.74,1226.84 C1198.42,1203.95 1246.33,1160.76 1269.26,1140.04 C1290.96,1119.74 1332.08,1080.52 1351.49,1061.61 C1363.23,1050.77 1390.79,1026.48 1405.01,1014.16 C1429.75,993.54 1484.37,948.67 1514.25,924.43 C1538.61,904.80 1573.16,876.94 1583.36,868.72" fill="none" stroke="rgb(33, 77, 123)" stroke-width="78.00" stroke-opacity="1.00" stroke-linejoin="round"/>
<path d="M444.73,2238.53 C455.86,2221.23 481.47,2181.46 495.94,2158.98 C513.74,2131.32 552.68,2070.82 573.82,2037.97 C595.52,2004.33 636.74,1940.60 656.25,1910.53 C673.57,1884.02 706.02,1834.59 721.14,1811.66 C736.37,1789.08 763.95,1748.65 776.30,1730.80 C785.78,1717.69 802.36,1695.45 809.46,1686.31 C823.62,1668.66 853.62,1631.90 869.45,1612.78 C878.06,1602.61 895.52,1582.15 904.37,1571.85 C914.48,1560.42 936.98,1535.43 949.38,1521.87 C974.77,1495.01 1022.70,1444.90 1045.23,1421.65 C1071.40,1394.89 1123.70,1341.50 1149.84,1314.87 C1170.16,1294.15 1208.27,1255.18 1226.07,1236.93 C1235.44,1227.15 1251.99,1212.00 1257.81,1206.80 C1261.41,1203.73 1267.13,1199.93 1267.86,1199.41 C1270.03,1197.89 1315.18,1147.07 1335.45,1124.24 C1348.53,1110.23 1376.67,1080.65 1391.73,1065.08 C1415.35,1041.54 1463.12,994.61 1487.28,971.22 C1514.26,945.63 1566.16,896.72 1591.09,873.39 C1611.51,854.57 1661.70,808.82 1682.83,790.81 C1694.37,781.37 1710.33,770.60 1719.96,764.05 C1745.79,746.38 1801.57,708.07 1831.51,687.42 C1847.39,676.43 1876.01,656.61 1888.74,647.78 C1898.32,641.14 1909.80,633.17 1911.70,631.85" fill="none" stroke="rgb(33, 77, 123)" stroke-width="78.00" stroke-opacity="1.00" stroke-linejoin="round"/>
<path d="M607.58,1883.05 C611.46,1873.33 622.13,1846.47 630.11,1832.03 C637.63,1818.91 642.80,1811.26 645.87,1806.71 C661.06,1785.12 696.06,1736.58 715.86,1709.63 C737.17,1681.28 779.37,1625.64 800.26,1598.36 C820.59,1572.46 861.00,1521.56 881.07,1496.57 C901.02,1472.36 941.18,1424.47 961.38,1400.80 C971.59,1389.15 992.70,1365.36 1003.61,1353.21 C1025.94,1329.05 1071.03,1281.20 1093.77,1257.51 C1115.96,1235.17 1160.38,1191.28 1182.62,1169.74 C1195.39,1157.84 1220.66,1134.60 1233.15,1123.25 C1257.24,1102.21 1303.75,1062.32 1326.17,1043.47 C1339.99,1032.33 1368.82,1009.49 1383.82,997.79 C1408.41,979.30 1446.86,950.39 1448.24,949.04 C1457.45,939.45 1476.24,920.53 1489.38,909.24 C1499.47,900.75 1521.61,882.33 1534.94,871.66 C1549.51,860.42 1577.00,840.20 1588.66,831.81 C1600.57,823.51 1625.43,806.41 1638.38,797.63 C1652.11,788.57 1680.21,770.31 1694.57,761.11 C1708.77,752.27 1736.37,735.30 1749.76,727.17 C1778.00,710.57 1833.97,678.15 1861.70,662.33 C1892.09,645.54 1953.25,612.44 1984.02,596.12 C1994.53,590.60 2008.79,583.11 2012.54,581.14" fill="none" stroke="rgb(33, 77, 123)" stroke-width="78.00" stroke-opacity="1.00" stroke-linejoin="round"/>
<path d="M1861.67,602.97 C1863.26,600.93 1867.85,595.02 1870.36,592.85 C1873.26,590.38 1885.48,584.01 1890.31,581.51 C1915.24,568.86 1974.04,539.33 2007.91,522.45 C2041.49,505.86 2101.91,476.14 2128.73,463.01 C2146.78,454.34 2184.51,436.47 2199.06,429.94 C2208.71,425.74 2221.44,420.21 2224.52,418.87" fill="none" stroke="rgb(33, 77, 123)" stroke-width="78.00" stroke-opacity="1.00" stroke-linejoin="round"/>
<path d="M1422.35,867.83 C1420.29,864.76 1415.22,857.56 1415.23,855.07 C1415.28,853.08 1416.37,851.50 1417.85,850.86 C1418.13,850.75 1442.85,837.83 1452.35,833.01 C1476.59,821.25 1531.89,794.96 1562.94,780.43 C1596.57,764.42 1664.71,731.47 1699.21,714.52 C1731.88,698.00 1794.41,666.02 1824.28,650.54 C1854.75,634.42 1916.30,601.51 1947.37,584.73 C1976.96,568.60 2032.79,538.12 2059.04,523.78 C2081.94,511.23 2140.12,479.27 2175.40,459.86 C2203.60,444.07 2260.52,411.72 2265.66,408.51 C2272.79,404.05 2282.71,396.26 2285.12,394.59 C2292.13,389.76 2325.93,370.38 2339.32,362.83 C2371.41,345.17 2423.19,316.74 2438.69,308.99 C2440.64,307.99 2443.89,305.51 2446.12,304.52 C2471.84,292.73 2531.97,265.37 2566.37,249.79 C2573.23,246.74 2586.18,241.02 2592.26,238.35 C2602.55,234.03 2622.19,226.01 2628.53,223.89 C2633.26,222.32 2639.53,220.24 2641.08,219.73" fill="none" stroke="rgb(33, 77, 123)" stroke-width="78.00" stroke-opacity="1.00" stroke-linejoin="round"/>
<path d="M2765.02,154.43 C2764.34,155.00 2762.56,156.51 2761.46,157.46 C2740.41,176.14 2692.57,218.53 2665.77,242.22 C2641.62,263.33 2615.08,286.53 2612.69,288.62" fill="none" stroke="rgb(33, 77, 123)" stroke-width="78.00" stroke-opacity="1.00" stroke-linejoin="round"/>
<path d="M2694.97,181.44 C2691.43,185.14 2682.12,194.91 2676.37,200.99 C2665.05,213.44 2642.23,238.90 2632.44,250.36 C2622.64,262.31 2605.34,286.31 2595.32,299.43 C2592.67,302.82 2587.82,308.93 2585.61,311.66 C2582.49,315.38 2580.48,317.39 2576.50,319.86 C2574.02,321.41 2543.64,351.82 2531.27,364.41 C2526.02,369.97 2517.08,379.72 2513.39,383.92 C2510.11,387.47 2495.18,398.34 2489.15,402.67 C2461.30,421.41 2399.61,462.83 2381.66,475.67 C2374.78,480.89 2369.90,485.07 2362.64,492.00 C2343.14,512.08 2301.57,555.55 2279.49,578.95 C2267.08,591.67 2241.72,617.19 2228.78,629.98 C2217.65,640.65 2196.42,660.75 2186.32,670.18 C2165.10,689.31 2120.47,729.03 2097.05,749.62 C2069.60,774.12 2017.94,820.46 1993.74,842.31 C1969.65,864.21 1919.38,910.06 1893.21,933.99 C1867.07,957.99 1818.21,1002.95 1795.48,1023.91 C1776.21,1041.78 1724.35,1090.32 1691.76,1121.00 C1675.36,1137.09 1653.82,1158.36 1653.68,1158.50 C1651.70,1160.45 1644.69,1169.78 1636.61,1178.09 C1623.83,1190.86 1597.78,1216.86 1595.80,1218.73 C1583.54,1230.27 1557.56,1254.47 1545.03,1265.67 C1533.88,1275.31 1514.79,1290.82 1505.73,1297.95 C1496.86,1305.41 1468.39,1331.93 1456.45,1343.68 C1436.38,1363.68 1391.34,1408.90 1366.36,1434.13 C1339.20,1461.77 1289.42,1512.57 1266.79,1535.71 C1257.28,1545.48 1236.74,1566.70 1225.69,1578.15 C1211.43,1593.29 1188.38,1618.19 1181.60,1626.06 C1166.27,1644.42 1127.69,1692.98 1106.74,1719.68 C1097.94,1731.35 1080.61,1754.81 1072.85,1765.89 C1066.28,1775.72 1050.13,1799.16 1037.44,1816.66 C1021.05,1838.68 984.37,1887.42 964.09,1914.14 C953.26,1928.10 931.76,1955.54 921.10,1969.01 C910.59,1981.98 889.98,2007.16 879.86,2019.37 C859.94,2042.59 819.95,2088.53 799.89,2111.24 C777.96,2137.08 735.90,2187.54 715.76,2212.17 C694.94,2238.33 652.38,2292.29 630.65,2320.09 C611.22,2344.86 573.49,2392.74 555.19,2415.85 C536.48,2439.08 502.80,2480.60 485.13,2502.92 C462.83,2532.30 422.60,2585.94 404.69,2610.19 C383.68,2638.99 339.85,2699.33 317.03,2730.87 C298.49,2756.63 254.00,2818.68 253.00,2820.18 C248.07,2827.62 238.64,2845.19 238.79,2845.22 C238.96,2845.24 239.76,2844.91 241.17,2844.20" fill="none" stroke="rgb(33, 77, 123)" stroke-width="78.00" stroke-opacity="1.00" stroke-linejoin="round"/>
<path d="M2265.44,602.97 C2263.38,606.49 2258.31,615.18 2255.31,620.34 C2250.79,628.15 2242.34,640.42 2234.54,650.41 C2226.17,660.73 2206.52,683.21 2197.57,693.33 C2175.14,717.88 2128.37,768.48 2104.03,794.52 C2082.08,817.57 2036.70,864.54 2013.26,888.47 C2003.19,898.42 1983.43,918.19 1973.62,929.15 C1965.73,938.22 1943.73,966.06 1933.81,979.60 C1924.44,992.97 1905.46,1021.70 1895.84,1037.06 C1882.07,1059.85 1844.98,1124.65 1831.91,1147.48 C1830.77,1149.46 1829.11,1152.37 1828.58,1153.29" fill="none" stroke="rgb(33, 77, 123)" stroke-width="78.00" stroke-opacity="1.00" stroke-linejoin="round"/>
<path d="M2052.05,842.37 C2041.06,856.59 2031.40,870.07 2020.99,886.45 C2005.64,910.84 1970.18,967.43 1950.07,999.63 C1931.31,1030.06 1897.00,1086.28 1881.45,1112.07 C1871.51,1129.20 1853.78,1160.27 1847.44,1172.10 C1840.57,1185.68 1811.52,1247.01 1798.38,1275.04 C1785.26,1303.32 1757.11,1364.17 1742.09,1396.74 C1728.46,1426.18 1700.98,1485.41 1687.13,1515.20 C1673.78,1543.36 1648.04,1596.64 1634.44,1623.19 C1627.20,1636.87 1612.41,1664.42 1604.85,1678.30 C1596.70,1692.93 1579.96,1722.62 1571.37,1737.68 C1563.30,1751.38 1547.87,1777.11 1540.50,1789.14 C1536.22,1795.83 1525.40,1812.29 1519.21,1821.24 C1513.36,1829.35 1504.29,1841.15 1497.94,1848.79 C1494.00,1853.51 1483.25,1866.40 1483.16,1866.32 C1483.07,1866.23 1483.04,1865.57 1483.08,1864.34" fill="none" stroke="rgb(33, 77, 123)" stroke-width="78.00" stroke-opacity="1.00" stroke-linejoin="round"/>
<path d="M1677.30,1464.03 C1677.30,1464.03 1694.07,1449.84 1694.07,1449.84" fill="none" stroke="rgb(33, 77, 123)" stroke-width="78.00" stroke-opacity="1.00" stroke-linejoin="round"/>
<path d="M1733.83,1405.24 C1726.21,1431.07 1707.86,1492.34 1697.23,1525.67 C1691.47,1542.30 1679.88,1574.65 1674.05,1590.37 C1663.51,1617.79 1637.26,1684.38 1631.88,1696.27 C1624.60,1711.45 1608.85,1741.68 1602.15,1754.10 C1594.90,1767.07 1579.31,1794.67 1570.95,1809.31 C1562.04,1824.54 1544.54,1853.84 1535.94,1867.93 C1527.68,1880.85 1509.60,1908.34 1499.39,1922.90 C1489.42,1936.55 1470.16,1961.16 1460.61,1972.58 C1450.89,1983.85 1427.99,2009.07 1419.93,2017.35 C1408.04,2029.25 1383.37,2052.73 1370.68,2064.25 C1359.01,2074.72 1330.54,2100.14 1325.84,2104.14 C1312.67,2115.13 1288.65,2134.78 1277.79,2143.44 C1269.41,2149.93 1244.43,2167.56 1232.22,2175.81 C1217.97,2184.91 1190.24,2201.37 1178.90,2207.84 C1165.81,2215.07 1138.38,2230.00 1123.45,2237.58 C1107.95,2245.00 1075.81,2259.09 1060.95,2264.98 C1045.58,2270.77 1013.14,2282.03 996.55,2287.59 C980.71,2292.62 951.14,2301.88 937.41,2306.11 C922.29,2310.50 889.06,2319.71 879.99,2321.80 C870.67,2323.84 832.57,2328.28 818.43,2329.41 C782.69,2331.56 718.35,2335.18 689.74,2336.66 C689.01,2336.70 688.27,2336.73 687.53,2336.77" fill="none" stroke="rgb(33, 77, 123)" stroke-width="78.00" stroke-opacity="1.00" stroke-linejoin="round"/>
<path d="M1893.69,999.47 C1891.61,998.37 1885.51,995.13 1883.39,992.76 C1880.92,989.95 1877.32,983.25 1876.11,980.33 C1874.64,976.77 1872.28,969.23 1871.56,965.66 C1870.81,961.78 1870.36,953.36 1871.06,949.36 C1871.52,946.82 1874.07,938.72 1874.86,936.17 C1866.44,941.51 1846.49,954.21 1825.93,970.08 C1800.19,990.90 1748.17,1035.30 1723.70,1056.49 C1717.40,1062.05 1715.01,1065.71 1714.20,1067.27" fill="none" stroke="rgb(33, 77, 123)" stroke-width="78.00" stroke-opacity="1.00" stroke-linejoin="round"/>
<path d="M2052.31,789.50 C2050.58,788.73 2047.39,788.09 2045.58,788.34 C2044.94,788.43 2013.46,806.53 1998.49,815.76 C1982.39,826.25 1956.93,844.02 1946.73,851.39 C1935.75,859.61 1912.94,877.00 1901.10,886.17 C1887.81,896.96 1859.64,920.31 1844.77,932.86 C1822.58,952.34 1777.27,992.76 1754.15,1013.69 C1729.26,1036.75 1680.08,1082.93 1655.80,1106.05 C1632.00,1129.39 1584.70,1176.50 1561.20,1200.27 C1538.43,1224.00 1494.49,1270.51 1473.33,1293.29 C1463.49,1304.19 1443.52,1326.55 1433.40,1338.01 C1421.71,1351.66 1399.15,1378.43 1388.28,1391.55 C1378.23,1404.13 1358.68,1428.58 1349.19,1440.44 C1330.91,1462.44 1301.12,1496.32 1287.99,1510.31 C1270.59,1527.95 1233.26,1562.57 1225.51,1569.83 C1220.86,1574.34 1214.41,1581.64 1213.75,1582.39" fill="none" stroke="rgb(33, 77, 123)" stroke-width="78.00" stroke-opacity="1.00" stroke-linejoin="round"/>
<path d="M582.38,2335.92 C581.93,2334.32 581.73,2331.55 582.17,2330.05 C582.60,2328.61 606.69,2291.62 608.41,2288.01 C609.06,2286.64 611.17,2279.83 612.97,2276.98 C619.98,2265.93 637.33,2243.00 648.72,2229.07 C667.65,2206.59 710.57,2156.62 734.55,2129.13 C757.55,2103.40 802.78,2053.07 825.01,2028.47 C832.64,2020.03 852.87,1997.50 858.75,1989.96 C863.17,1983.98 872.00,1971.80 876.41,1965.61 C878.67,1962.36 883.25,1953.87 888.85,1945.48 C896.56,1934.16 913.94,1913.65 921.33,1904.98 C941.19,1881.91 985.06,1831.19 1009.07,1803.54 C1032.53,1776.70 1079.69,1722.93 1103.38,1696.00 C1126.56,1669.84 1169.32,1621.75 1188.90,1599.82 C1208.43,1578.34 1256.26,1526.87 1262.39,1520.03 C1282.12,1497.25 1324.12,1448.20 1346.39,1421.94 C1358.22,1408.10 1380.80,1381.98 1391.56,1369.69 C1401.25,1358.95 1427.65,1330.31 1439.24,1318.62 C1453.98,1304.23 1473.31,1288.27 1482.66,1280.60 C1492.10,1272.90 1509.43,1259.30 1515.49,1254.54" fill="none" stroke="rgb(33, 77, 123)" stroke-width="78.00" stroke-opacity="1.00" stroke-linejoin="round"/>
<path d="M1215.74,1552.58 C1223.41,1542.57 1242.19,1518.23 1252.82,1505.04 C1263.65,1492.04 1287.33,1466.75 1294.26,1458.95 C1304.17,1447.37 1322.04,1423.15 1332.96,1410.52 C1342.81,1399.66 1366.58,1376.42 1377.28,1366.44 C1383.74,1360.63 1395.54,1350.57 1403.01,1344.66 C1405.00,1343.09 1407.71,1340.93 1408.44,1340.35" fill="none" stroke="rgb(33, 77, 123)" stroke-width="78.00" stroke-opacity="1.00" stroke-linejoin="round"/>
<path d="M1866.17,1034.00 C1866.21,1037.09 1865.28,1040.43 1863.40,1044.69 C1857.96,1056.81 1855.67,1063.33 1853.20,1072.87 C1847.73,1095.45 1837.35,1140.92 1832.21,1158.26 C1826.63,1175.94 1813.84,1209.87 1807.94,1224.18 C1801.59,1238.87 1787.50,1269.43 1779.76,1285.29 C1764.94,1314.99 1736.18,1373.16 1722.24,1401.62 C1710.20,1427.41 1686.04,1479.20 1673.92,1505.21 C1660.14,1534.24 1632.55,1591.38 1618.75,1619.49 C1612.51,1631.70 1599.85,1656.29 1593.43,1668.66 C1586.61,1681.40 1570.13,1709.76 1560.43,1725.41 C1549.80,1741.72 1530.89,1770.09 1522.61,1782.15 C1513.49,1795.07 1494.37,1821.79 1484.39,1835.58 C1462.58,1864.87 1421.76,1919.00 1402.76,1943.84 C1394.75,1954.03 1376.82,1976.52 1360.97,1995.33 C1345.48,2012.88 1335.25,2022.06 1320.74,2034.30 C1305.36,2047.05 1249.47,2089.40 1222.83,2109.38 C1210.65,2118.25 1188.02,2133.62 1176.99,2141.04 C1168.45,2146.67 1162.67,2150.30 1153.57,2155.44 C1141.33,2161.99 1101.36,2180.80 1089.23,2186.09 C1060.77,2197.89 998.63,2222.93 964.95,2236.17 C935.07,2247.65 874.12,2270.73 834.26,2284.88 C818.84,2290.00 791.18,2298.84 778.95,2302.58 C773.83,2304.02 761.86,2307.29 754.66,2308.03 C750.28,2308.46 741.37,2308.53 738.81,2307.71 C737.36,2307.21 735.11,2305.62 734.32,2304.53 C733.39,2303.16 733.03,2301.49 733.26,2299.83 C734.20,2294.06 738.19,2283.63 743.23,2273.46 C747.38,2265.33 756.26,2248.86 759.53,2243.61 C766.16,2233.28 780.48,2211.53 788.17,2200.11 C798.42,2185.68 818.94,2157.35 829.20,2143.45 C843.01,2125.40 873.24,2086.13 889.66,2064.91 C908.86,2040.43 951.01,1987.60 973.97,1959.25 C1000.87,1926.92 1048.28,1870.43 1068.78,1846.26 C1088.60,1823.18 1129.69,1775.56 1150.96,1751.00 C1173.69,1724.97 1220.42,1671.64 1244.43,1644.34 C1267.47,1618.27 1311.95,1568.09 1333.37,1543.99 C1353.18,1521.86 1391.17,1479.57 1409.35,1459.41 C1438.31,1427.85 1492.35,1369.72 1517.43,1343.14 C1537.25,1322.95 1574.69,1285.13 1592.31,1267.48 C1611.43,1248.75 1655.21,1206.83 1679.86,1183.65 C1690.63,1173.95 1711.79,1155.21 1722.18,1146.16 C1729.10,1140.27 1760.96,1115.28 1774.36,1105.00 C1780.56,1100.46 1792.30,1092.03 1797.84,1088.15 C1806.50,1082.33 1816.53,1076.59 1825.11,1073.62 C1829.15,1072.24 1834.92,1071.41 1837.18,1071.89 C1838.50,1072.22 1839.47,1073.13 1839.89,1074.43 C1840.52,1076.64 1840.03,1082.41 1838.89,1086.31 C1836.43,1094.50 1830.51,1105.37 1824.67,1114.89 C1808.52,1140.35 1769.63,1198.93 1751.58,1225.79 C1741.75,1239.98 1725.17,1262.26 1720.33,1270.46 C1711.73,1285.70 1676.73,1353.78 1660.75,1385.26 C1645.35,1415.74 1615.27,1474.71 1600.60,1503.20 C1594.65,1514.21 1582.06,1536.62 1575.41,1548.01 C1559.45,1573.97 1527.03,1625.94 1510.58,1651.95 C1491.72,1681.57 1455.14,1739.26 1437.42,1767.34 C1418.50,1797.17 1381.94,1854.77 1364.31,1882.53 C1356.15,1894.63 1340.18,1917.78 1332.61,1928.13 C1329.17,1932.72 1316.28,1948.44 1310.12,1955.49 C1304.06,1962.11 1291.39,1974.97 1286.50,1979.34 C1275.41,1988.84 1253.82,2007.09 1243.32,2015.84 C1234.56,2022.71 1217.29,2036.13 1208.77,2042.68 C1201.76,2047.98 1166.36,2071.52 1146.88,2084.15 C1120.47,2100.45 1065.73,2133.96 1037.39,2151.16 C1004.00,2171.26 940.43,2209.37 910.26,2227.38 C897.52,2234.91 873.61,2248.99 862.44,2255.54 C848.91,2263.40 816.86,2280.34 803.50,2286.35 C797.76,2288.83 785.08,2293.83 784.71,2293.84 C783.25,2293.80 780.69,2292.16 780.09,2290.72 C779.52,2289.24 779.78,2287.43 780.59,2286.04 C780.69,2285.88 788.51,2271.98 792.19,2265.94 C801.29,2251.64 821.42,2221.99 829.89,2209.82 C846.24,2187.14 883.43,2136.45 904.27,2108.45 C924.80,2081.83 964.68,2030.75 984.03,2006.28 C1005.52,1979.45 1047.70,1926.88 1068.40,1901.14 C1087.31,1877.66 1123.22,1833.18 1140.21,1812.18 C1155.58,1793.26 1185.97,1756.07 1205.35,1733.78 C1217.47,1720.34 1244.16,1691.18 1258.73,1675.46 C1284.97,1647.79 1331.47,1599.13 1351.73,1578.13 C1374.39,1554.87 1422.12,1506.09 1447.18,1480.57 C1474.64,1452.79 1529.79,1397.12 1557.47,1369.23 C1581.91,1344.65 1627.49,1298.86 1648.63,1277.64 C1666.48,1259.78 1706.59,1219.72 1721.89,1205.54 C1733.86,1194.98 1749.38,1181.30 1752.94,1178.20 C1748.65,1200.63 1744.21,1219.73 1739.32,1234.57 C1735.22,1246.63 1726.01,1273.13 1720.90,1287.59 C1714.95,1303.84 1702.60,1336.64 1696.21,1353.19 C1689.39,1369.97 1676.35,1401.29 1670.13,1415.84 C1663.57,1430.59 1650.11,1460.30 1643.22,1475.26 C1636.09,1490.18 1621.89,1519.37 1614.80,1533.64 C1607.77,1547.22 1592.87,1575.22 1585.01,1589.64 C1576.32,1604.67 1558.94,1634.00 1550.28,1647.82 C1541.80,1660.92 1525.29,1686.13 1517.26,1698.25 C1506.78,1713.75 1490.08,1737.05 1479.76,1751.29 C1470.19,1763.87 1451.98,1787.49 1443.34,1798.54 C1436.86,1806.71 1412.31,1834.79 1401.98,1846.04 C1385.76,1863.33 1373.96,1874.65 1365.53,1882.69 C1361.18,1886.70 1351.68,1895.22 1345.46,1900.39 C1329.87,1912.76 1300.41,1934.88 1290.76,1941.92 C1267.08,1958.86 1214.61,1995.95 1185.82,2016.10 C1171.28,2025.94 1142.44,2045.19 1128.14,2054.61 C1114.06,2063.61 1084.06,2082.37 1068.14,2092.13 C1052.23,2101.48 1020.73,2119.60 1005.14,2128.37 C976.70,2143.51 909.79,2178.53 907.46,2179.46 C903.54,2181.01 892.09,2184.26 888.13,2184.97 C885.68,2185.38 882.39,2185.38 881.13,2184.94 C879.92,2184.47 878.60,2182.52 878.59,2181.38 C878.68,2177.79 892.08,2157.98 909.28,2134.74 C924.89,2113.89 959.65,2071.06 975.68,2051.33 C994.71,2028.00 1035.76,1977.72 1057.78,1950.78 C1082.20,1921.03 1130.20,1863.00 1153.78,1834.71 C1176.07,1808.51 1219.36,1758.20 1240.35,1734.09 C1250.36,1722.82 1273.60,1696.94 1286.82,1682.33 C1300.55,1667.52 1327.28,1639.06 1340.28,1625.42 C1352.56,1612.94 1376.39,1589.14 1387.94,1577.82 C1409.26,1558.06 1451.09,1519.93 1471.60,1501.57 C1481.62,1492.80 1501.50,1475.54 1511.37,1467.05 C1524.55,1455.97 1552.65,1432.70 1567.57,1420.50 C1596.64,1397.49 1648.33,1358.24 1671.74,1340.62 C1680.38,1334.15 1700.44,1319.16 1706.97,1316.17 C1708.65,1315.43 1710.37,1315.76 1710.47,1316.66 C1710.53,1318.07 1702.21,1332.00 1696.74,1339.60 C1690.31,1348.48 1671.78,1369.93 1664.35,1378.50 C1646.25,1399.24 1605.71,1445.52 1583.27,1471.07 C1557.48,1500.35 1507.68,1557.00 1483.69,1584.37 C1462.25,1609.00 1419.09,1658.82 1397.37,1684.00 C1372.39,1713.43 1328.99,1765.22 1310.57,1787.57 C1301.98,1797.76 1284.43,1818.19 1275.47,1828.43 C1266.14,1838.72 1246.30,1860.17 1235.79,1871.34 C1223.98,1883.41 1199.83,1907.63 1187.50,1919.78 C1162.41,1943.47 1117.31,1985.63 1097.29,2004.10 C1089.95,2010.80 1058.83,2036.83 1048.64,2044.31 C1043.81,2047.70 1033.70,2054.44 1024.36,2058.29 C1019.64,2060.19 1013.73,2061.36 1011.58,2060.57 C1010.33,2060.07 1009.49,2058.98 1009.27,2057.68 C1008.94,2055.29 1009.34,2050.41 1010.14,2047.00 C1011.86,2039.91 1018.86,2024.21 1023.25,2016.44 C1028.13,2008.06 1045.52,1981.45 1055.16,1967.71 C1065.97,1952.84 1084.67,1928.27 1093.45,1916.92 C1103.27,1904.54 1123.50,1879.30 1133.90,1866.45 C1144.32,1853.82 1165.23,1828.75 1175.73,1816.32 C1186.33,1804.04 1207.59,1779.64 1218.25,1767.52 C1228.70,1755.92 1249.30,1733.34 1259.45,1722.36 C1271.58,1709.77 1295.51,1685.40 1307.30,1673.63 C1318.24,1663.09 1342.27,1640.30 1351.17,1632.33 C1367.14,1618.50 1387.50,1602.28 1397.49,1594.72 C1401.10,1592.03 1416.25,1582.00 1425.07,1576.86 C1428.04,1575.21 1434.00,1572.01 1438.19,1570.37 C1442.63,1568.64 1450.43,1566.93 1452.24,1567.30 C1453.48,1567.59 1455.81,1569.39 1456.65,1570.64 C1458.41,1573.45 1459.04,1577.70 1458.76,1582.70 C1458.19,1589.51 1455.10,1602.73 1452.44,1610.48 C1447.95,1622.88 1437.72,1650.55 1431.17,1666.89 C1423.82,1683.93 1408.77,1715.97 1402.07,1729.27 C1394.77,1743.11 1379.42,1771.42 1371.38,1785.88 C1363.14,1800.00 1346.57,1826.91 1338.24,1839.71 C1328.26,1854.32 1307.02,1883.13 1296.30,1896.54 C1286.22,1908.49 1267.83,1929.86 1259.53,1939.27 C1253.66,1945.79 1240.25,1958.45 1234.00,1963.15 C1221.99,1972.06 1202.91,1984.47 1197.51,1986.91 C1195.46,1987.80 1192.65,1988.44 1190.37,1988.49 C1188.41,1988.51 1184.75,1987.72 1183.10,1986.95 C1181.52,1986.17 1178.60,1983.66 1177.85,1982.45 C1177.10,1981.17 1176.10,1974.04 1176.21,1970.36 C1176.54,1961.70 1179.26,1952.23 1183.09,1942.78 C1188.17,1930.80 1201.48,1901.52 1209.28,1885.46 C1217.55,1869.34 1232.37,1842.28 1241.98,1826.12 C1249.78,1813.45 1266.25,1787.94 1275.00,1775.08 C1279.63,1768.60 1289.49,1755.51 1294.55,1748.94 C1305.38,1735.64 1327.87,1710.01 1338.98,1698.16 C1350.60,1686.19 1375.44,1661.89 1388.64,1649.57 C1411.76,1628.69 1447.78,1596.59 1458.73,1587.82 C1470.53,1578.80 1478.03,1573.64 1487.45,1567.67 C1491.53,1565.07 1496.33,1562.01 1497.05,1561.54" fill="none" stroke="rgb(33, 77, 123)" stroke-width="78.00" stroke-opacity="1.00" stroke-linejoin="round"/>
<path d="M512.55,2449.98 C513.50,2447.77 516.52,2440.64 517.49,2438.59 C520.31,2432.71 528.00,2421.06 531.25,2416.17 C549.98,2388.67 590.04,2330.67 609.05,2304.37 C617.69,2292.79 641.68,2262.32 651.15,2251.73 C662.03,2240.06 679.05,2220.04 688.93,2207.68 C707.07,2183.89 746.38,2129.55 763.68,2106.37 C773.71,2093.44 790.41,2073.08 801.22,2060.96 C822.86,2036.94 867.95,1986.95 891.40,1961.00 C901.96,1949.06 923.48,1924.23 934.46,1911.33 C946.76,1896.04 958.35,1878.84 961.34,1874.40 C956.59,1876.22 953.55,1877.80 951.45,1880.20 C951.25,1880.43 923.46,1911.26 911.90,1924.29 C899.45,1938.68 877.35,1965.44 867.71,1977.82 C856.30,1993.02 841.21,2015.83 831.85,2031.70 C824.29,2043.86 807.61,2068.54 798.31,2081.30 C788.49,2094.11 768.58,2118.99 758.92,2131.06 C748.14,2144.76 727.64,2171.08 717.90,2183.71 C716.27,2185.83 713.37,2189.61 712.10,2191.27" fill="none" stroke="rgb(33, 77, 123)" stroke-width="78.00" stroke-opacity="1.00" stroke-linejoin="round"/>
<path d="M304.57,2574.48 C311.83,2564.46 327.46,2543.35 337.12,2531.19 C355.50,2508.14 398.40,2454.54 422.92,2423.98 C434.44,2409.70 455.87,2383.24 465.77,2371.06 C474.06,2360.96 494.81,2335.81 503.53,2327.22 C508.68,2322.41 519.21,2312.39 521.88,2308.82 C522.13,2308.49 526.40,2300.72 530.58,2295.97 C533.94,2292.18 561.55,2265.16 572.89,2252.34 C581.82,2241.76 598.83,2218.58 608.43,2204.73 C627.35,2176.64 664.49,2121.38 682.72,2094.21 C693.57,2078.69 701.53,2068.09 714.08,2052.62 C734.14,2026.90 776.27,1972.51 798.33,1943.85 C817.88,1918.52 858.35,1866.69 879.27,1840.20 C897.25,1818.28 935.20,1772.28 955.18,1748.19 C963.98,1737.78 983.52,1714.00 995.02,1699.24 C1011.81,1677.02 1049.05,1627.69 1071.25,1599.19 C1082.39,1585.28 1104.93,1557.45 1116.34,1543.54 C1128.47,1529.05 1151.22,1501.95 1161.84,1489.35 C1169.57,1480.18 1181.79,1465.67 1182.13,1465.14" fill="none" stroke="rgb(255, 255, 255)" stroke-width="78.00" stroke-opacity="1.00" stroke-linejoin="round"/>
<path d="M464.60,2516.65 C467.71,2513.15 476.57,2503.17 481.13,2496.57 C486.48,2488.78 507.53,2452.35 516.23,2436.79 C523.55,2423.74 541.17,2393.22 543.97,2389.07 C551.42,2378.06 602.22,2315.39 623.46,2289.43 C646.12,2261.81 688.55,2209.79 708.31,2185.39 C717.06,2174.26 731.89,2155.16 739.77,2145.27 C760.09,2121.23 800.43,2074.23 820.46,2051.27 C844.14,2024.38 889.06,1973.24 910.31,1949.01 C933.61,1922.22 976.94,1872.17 996.96,1848.91 C1015.97,1827.11 1055.70,1782.10 1076.41,1758.88 C1086.77,1747.52 1107.96,1724.41 1118.80,1712.66 C1130.79,1699.85 1155.38,1673.73 1167.97,1660.42 C1178.20,1649.65 1193.56,1633.48 1198.68,1628.08" fill="none" stroke="rgb(33, 77, 123)" stroke-width="78.00" stroke-opacity="1.00" stroke-linejoin="round"/>
<path d="M1219.99,1140.06 C1220.01,1138.49 1220.17,1134.12 1219.94,1133.14 C1219.51,1131.38 1217.44,1128.22 1216.27,1127.20 C1214.89,1126.08 1212.31,1124.25 1211.23,1123.76 C1209.42,1122.99 1205.69,1122.81 1203.21,1123.52 C1198.55,1124.91 1192.41,1129.29 1191.30,1130.06 C1181.01,1137.39 1157.99,1154.14 1145.26,1163.56 C1113.24,1187.99 1054.66,1232.88 1028.08,1253.33 C1018.82,1260.45 1007.67,1269.03 1005.78,1270.49 C1029.72,1251.84 1079.50,1213.22 1105.35,1193.25 C1110.35,1189.39 1120.77,1181.27 1126.20,1177.02 C1132.74,1171.85 1147.51,1160.13 1150.96,1155.76 C1153.04,1153.06 1156.32,1146.66 1157.02,1142.89 C1157.72,1138.83 1156.81,1131.10 1155.06,1125.47 C1153.90,1121.78 1151.97,1115.57 1151.20,1113.06" fill="none" stroke="rgb(33, 77, 123)" stroke-width="78.00" stroke-opacity="1.00" stroke-linejoin="round"/>
<path d="M2820.57,93.57 C2834.38,86.68 2875.42,66.13 2876.53,65.47 C2878.34,64.40 2880.20,63.01 2880.76,62.37" fill="none" stroke="rgb(33, 77, 123)" stroke-width="50.00" stroke-opacity="1.00" stroke-linejoin="round"/>
<path d="M2872.00,71.42 C2870.17,74.07 2867.84,75.71 2863.00,78.10 C2855.96,81.40 2840.45,88.62 2831.98,92.53 C2821.76,97.42 2810.31,103.38 2804.27,108.00 C2803.81,108.35 2803.36,108.70 2802.91,109.05" fill="none" stroke="rgb(33, 77, 123)" stroke-width="50.00" stroke-opacity="1.00" stroke-linejoin="round"/>
</g>
</svg>
